<?xml version="1.0" encoding="UTF-8"?>
<svg xmlns="http://www.w3.org/2000/svg" xmlns:xlink="http://www.w3.org/1999/xlink" viewBox="0 0 50 50" width="50px" height="50px">
<g id="surface147622439">
<path style="fill-rule:nonzero;fill:rgb(0%,0%,0%);fill-opacity:1;stroke-width:15;stroke-linecap:butt;stroke-linejoin:round;stroke:rgb(0%,0%,0%);stroke-opacity:1;stroke-miterlimit:10;" d="M 224.16 49.38 C 226.06 52.78 225.88 56.94 223.68 60.16 L 120.8 217.28 C 119.2 219.74 116.62 221.4 113.7 221.84 C 110.8 222.26 107.84 221.42 105.6 219.52 L 34.24 157.76 C 31.12 155.46 29.58 151.62 30.22 147.8 C 30.86 144 33.6 140.88 37.28 139.74 C 40.98 138.58 45 139.62 47.68 142.4 L 110.08 196.32 L 206.4 48.96 C 208.2 46.08 211.32 44.28 214.72 44.16 C 218.6 43.98 222.26 46 224.16 49.38 Z M 224.16 49.38 " transform="matrix(0.195312,0,0,0.195312,0,0)"/>
<path style=" stroke:none;fill-rule:nonzero;fill:rgb(100%,100%,100%);fill-opacity:1;" d="M 41.9375 8.625 C 41.273438 8.648438 40.664062 9 40.3125 9.5625 L 21.5 38.34375 L 9.3125 27.8125 C 8.789062 27.269531 8.003906 27.066406 7.28125 27.292969 C 6.5625 27.515625 6.027344 28.125 5.902344 28.867188 C 5.777344 29.613281 6.078125 30.363281 6.6875 30.8125 L 20.625 42.875 C 21.0625 43.246094 21.640625 43.410156 22.207031 43.328125 C 22.777344 43.242188 23.28125 42.917969 23.59375 42.4375 L 43.6875 11.75 C 44.117188 11.121094 44.152344 10.308594 43.78125 9.644531 C 43.410156 8.984375 42.695312 8.589844 41.9375 8.625 Z M 41.9375 8.625 "/>
</g>
</svg>
