<?xml version="1.0" encoding="UTF-8"?>
<svg xmlns="http://www.w3.org/2000/svg" xmlns:xlink="http://www.w3.org/1999/xlink" viewBox="0 0 48 48" width="48px" height="48px">
<g id="surface147822326">
<path style="fill-rule:nonzero;fill:rgb(0%,0%,0%);fill-opacity:1;stroke-width:15;stroke-linecap:butt;stroke-linejoin:round;stroke:rgb(0%,0%,0%);stroke-opacity:1;stroke-miterlimit:10;" d="M 218 43.75 C 219.708333 47.8125 218.708333 52.5 215.541667 55.541667 L 143.083333 128 L 215.541667 200.458333 C 218.333333 203.125 219.458333 207.104167 218.479167 210.854167 C 217.5 214.583333 214.583333 217.5 210.854167 218.479167 C 207.104167 219.458333 203.125 218.333333 200.458333 215.541667 L 128 143.083333 L 55.541667 215.541667 C 52.875 218.333333 48.895833 219.458333 45.145833 218.479167 C 41.416667 217.5 38.5 214.583333 37.520833 210.854167 C 36.541667 207.104167 37.666667 203.125 40.458333 200.458333 L 112.916667 128 L 40.458333 55.541667 C 37.354167 52.520833 36.375 47.916667 38.020833 43.895833 C 39.645833 39.875 43.541667 37.229167 47.875 37.229167 C 50.770833 37.229167 53.520833 38.395833 55.541667 40.458333 L 128 112.916667 L 200.458333 40.458333 C 202.416667 38.416667 205.083333 37.25 207.916667 37.166667 C 212.3125 37.083333 216.3125 39.6875 218 43.75 Z M 218 43.75 " transform="matrix(0.1875,0,0,0.1875,0,0)"/>
<path style=" stroke:none;fill-rule:nonzero;fill:rgb(100%,100%,100%);fill-opacity:1;" d="M 38.980469 6.96875 C 38.453125 6.984375 37.953125 7.203125 37.585938 7.585938 L 24 21.171875 L 10.414062 7.585938 C 10.035156 7.199219 9.519531 6.980469 8.976562 6.980469 C 8.164062 6.980469 7.433594 7.476562 7.128906 8.230469 C 6.820312 8.984375 7.003906 9.847656 7.585938 10.414062 L 21.171875 24 L 7.585938 37.585938 C 7.0625 38.085938 6.851562 38.832031 7.035156 39.535156 C 7.21875 40.234375 7.765625 40.78125 8.464844 40.964844 C 9.167969 41.148438 9.914062 40.9375 10.414062 40.414062 L 24 26.828125 L 37.585938 40.414062 C 38.085938 40.9375 38.832031 41.148438 39.535156 40.964844 C 40.234375 40.78125 40.78125 40.234375 40.964844 39.535156 C 41.148438 38.832031 40.9375 38.085938 40.414062 37.585938 L 26.828125 24 L 40.414062 10.414062 C 41.007812 9.84375 41.195312 8.964844 40.875 8.203125 C 40.558594 7.441406 39.808594 6.953125 38.980469 6.96875 Z M 38.980469 6.96875 "/>
</g>
</svg>
