<?xml version="1.0" encoding="UTF-8" standalone="no" ?>
<!DOCTYPE svg PUBLIC "-//W3C//DTD SVG 1.1//EN" "http://www.w3.org/Graphics/SVG/1.1/DTD/svg11.dtd">
<svg xmlns="http://www.w3.org/2000/svg" xmlns:xlink="http://www.w3.org/1999/xlink" version="1.1" width="512" height="512" viewBox="0 0 512 512" xml:space="preserve">
<desc>Created with Fabric.js 3.6.6</desc>
<defs>
</defs>
<rect x="0" y="0" width="100%" height="100%" fill="rgba(255, 255, 255, 1)"></rect>
<g transform="matrix(1 0 0 1 165.5 33)"  >
<line style="stroke: rgb(0,0,0); stroke-width: 2; stroke-dasharray: none; stroke-linecap: butt; stroke-dashoffset: 0; stroke-linejoin: miter; stroke-miterlimit: 4; fill: rgb(0,0,0); fill-rule: nonzero; opacity: 1;"  x1="0" y1="0" x2="0" y2="0" />
</g>
<g transform="matrix(1 0 0 1 255.65 254.24)"  >
<g style=""   >
		<g transform="matrix(1.01 0 0 1.01 -183.68 210.65)"  >
<line style="stroke: rgb(0,0,0); stroke-width: 2; stroke-dasharray: none; stroke-linecap: butt; stroke-dashoffset: 0; stroke-linejoin: miter; stroke-miterlimit: 4; fill: rgb(0,0,0); fill-rule: nonzero; opacity: 1;"  x1="0" y1="0" x2="0" y2="0" />
</g>
		<g transform="matrix(1.01 0 0 1.01 -159.05 26.59)"  >
<g style=""   >
		<g transform="matrix(1 0 0 1 -18.03 -48.7)"  >
<line style="stroke: rgb(0,0,0); stroke-width: 10; stroke-dasharray: none; stroke-linecap: butt; stroke-dashoffset: 0; stroke-linejoin: miter; stroke-miterlimit: 4; fill: rgb(0,0,0); fill-rule: nonzero; opacity: 1;"  x1="-64.36522293205827" y1="0" x2="64.36522293205827" y2="0" />
</g>
		<g transform="matrix(0.77 0 0 1 15.23 0)"  >
<line style="stroke: rgb(0,0,0); stroke-width: 10; stroke-dasharray: none; stroke-linecap: butt; stroke-dashoffset: 0; stroke-linejoin: miter; stroke-miterlimit: 4; fill: rgb(0,0,0); fill-rule: nonzero; opacity: 1;"  x1="-64.36522293205827" y1="0" x2="64.36522293205827" y2="0" />
</g>
		<g transform="matrix(0.46 0 0 1 52.78 48.7)"  >
<line style="stroke: rgb(0,0,0); stroke-width: 10; stroke-dasharray: none; stroke-linecap: butt; stroke-dashoffset: 0; stroke-linejoin: miter; stroke-miterlimit: 4; fill: rgb(0,0,0); fill-rule: nonzero; opacity: 1;"  x1="-64.36522293205827" y1="0" x2="64.36522293205827" y2="0" />
</g>
</g>
</g>
		<g transform="matrix(1 0 0 1 34.66 0)"  >
<g style=""   >
		<g transform="matrix(1.7 0 0 1.7 0 35.75)"  >
<path style="stroke: none; stroke-width: 1; stroke-dasharray: none; stroke-linecap: butt; stroke-dashoffset: 0; stroke-linejoin: miter; stroke-miterlimit: 4; fill: rgb(0,0,0); fill-rule: nonzero; opacity: 1;"  transform=" translate(-122, -122)" d="M 244 156.153 V 45.026 c 0 -4.971 -4.029 -9 -9 -9 H 46.331 l -5.487 -15.089 c -1.293 -3.557 -4.674 -5.925 -8.458 -5.925 H 9 c -4.971 0 -9 4.029 -9 9 s 4.029 9 9 9 h 17.083 L 83.301 190.37 c 1.293 3.558 4.674 5.925 8.458 5.925 h 6.831 c -1.855 3.206 -2.923 6.922 -2.923 10.885 c 0 12.024 9.783 21.808 21.808 21.808 c 12.025 0 21.809 -9.783 21.809 -21.808 c 0 -3.963 -1.068 -7.679 -2.923 -10.885 h 66.946 c -1.855 3.206 -2.923 6.922 -2.923 10.885 c 0 12.024 9.783 21.808 21.808 21.808 c 12.025 0 21.809 -9.783 21.809 -21.808 c 0 -4.628 -1.454 -8.922 -3.922 -12.456 c 2.368 -1.621 3.922 -4.342 3.922 -7.429 c 0 -4.971 -4.029 -9 -9 -9 H 98.063 l -4.779 -13.142 H 235 C 239.971 165.153 244 161.124 244 156.153 z M 117.475 210.987 c -2.1 0 -3.808 -1.708 -3.808 -3.808 s 1.708 -3.809 3.808 -3.809 s 3.809 1.709 3.809 3.809 S 119.574 210.987 117.475 210.987 z M 222.191 210.987 c -2.1 0 -3.808 -1.708 -3.808 -3.808 s 1.708 -3.809 3.808 -3.809 S 226 205.08 226 207.18 S 224.291 210.987 222.191 210.987 z M 126.475 109.794 V 91.385 H 170 v 18.409 H 126.475 z M 170 127.794 v 19.359 h -43.525 v -19.359 H 170 z M 73.161 109.811 l -6.7 -18.426 h 42.014 v 18.409 H 73.5 C 73.385 109.794 73.274 109.807 73.161 109.811 z M 126.475 73.385 V 54.026 H 170 v 19.358 H 126.475 z M 188 91.385 h 38 v 18.409 h -38 V 91.385 z M 226 73.385 h -38 V 54.026 h 38 V 73.385 z M 108.475 54.026 v 19.358 H 59.916 l -7.039 -19.358 H 108.475 z M 79.699 127.794 h 28.775 v 19.359 H 86.739 L 79.699 127.794 z M 188 147.153 v -19.359 h 38 v 19.359 H 188 z" stroke-linecap="round" />
</g>
		<g transform="matrix(1.31 0 0 1.68 96.13 -93.55)"  >
<path style="stroke: rgb(0,0,0); stroke-width: 8; stroke-dasharray: none; stroke-linecap: butt; stroke-dashoffset: 0; stroke-linejoin: miter; stroke-miterlimit: 10; fill: rgb(255,255,255); fill-rule: evenodd; opacity: 1;"  transform=" translate(-77.23, -70.18)" d="m 1.0425826 140.35696 l 25.78009 -49.87359 l 0 0 c -30.142242 -17.309525 -35.62507 -47.05113 -12.666686 -68.71045 c 22.958385 -21.65932 66.84442 -28.147947 101.387596 -14.990329 c 34.543175 13.1576185 48.438576 41.655407 32.10183 65.83693 c -16.336761 24.181526 -57.559166 36.132935 -95.233955 27.61071 z" stroke-linecap="round" />
</g>
		<g transform="matrix(2.26 0 0 2.26 96.69 -123.96)"  >
<g style=""   >
		<g transform="matrix(1 0 0 1 15 15.5)"  >
<path style="stroke: none; stroke-width: 1; stroke-dasharray: none; stroke-linecap: butt; stroke-dashoffset: 0; stroke-linejoin: miter; stroke-miterlimit: 4; fill: rgb(0,0,0); fill-rule: nonzero; opacity: 1;"  transform=" translate(-43.5, -44)" d="M 55.688 41.863 l -1.444 -0.277 c -0.677 -0.13 -1.21 -0.573 -1.462 -1.216 c -0.253 -0.642 -0.163 -1.329 0.245 -1.885 l 0.907 -1.236 c 0.292 -0.398 0.25 -0.95 -0.1 -1.299 l -1.959 -1.958 c -0.339 -0.339 -0.872 -0.389 -1.268 -0.121 l -1.217 0.824 c -0.57 0.388 -1.262 0.451 -1.895 0.175 c -0.632 -0.275 -1.055 -0.825 -1.16 -1.508 l -0.233 -1.515 C 46.028 31.36 45.608 31 45.115 31 h -2.77 c -0.479 0 -0.892 0.341 -0.982 0.812 l -0.358 1.865 c -0.127 0.662 -0.558 1.19 -1.181 1.448 c -0.625 0.261 -1.301 0.189 -1.86 -0.189 l -1.572 -1.064 c -0.397 -0.268 -0.929 -0.218 -1.268 0.121 l -1.959 1.958 c -0.35 0.349 -0.392 0.9 -0.1 1.299 l 0.907 1.236 c 0.408 0.556 0.498 1.243 0.245 1.885 c -0.252 0.643 -0.785 1.086 -1.462 1.216 l -1.444 0.277 c -0.471 0.091 -0.812 0.503 -0.812 0.982 v 2.77 c 0 0.493 0.36 0.913 0.848 0.988 l 1.515 0.233 c 0.683 0.105 1.232 0.528 1.508 1.16 c 0.276 0.633 0.212 1.323 -0.175 1.895 l -0.824 1.217 c -0.269 0.396 -0.218 0.929 0.121 1.268 l 1.958 1.959 c 0.348 0.349 0.899 0.39 1.299 0.1 l 1.236 -0.907 c 0.555 -0.407 1.244 -0.498 1.885 -0.245 c 0.643 0.252 1.086 0.785 1.216 1.462 l 0.277 1.444 C 41.454 56.659 41.866 57 42.346 57 h 2.77 c 0.493 0 0.913 -0.36 0.988 -0.848 l 0.164 -1.065 c 0.105 -0.688 0.552 -1.256 1.193 -1.522 c 0.644 -0.266 1.361 -0.179 1.921 0.232 l 0.869 0.638 c 0.4 0.293 0.951 0.25 1.299 -0.1 l 1.958 -1.959 c 0.339 -0.339 0.39 -0.871 0.121 -1.268 l -0.824 -1.217 c -0.387 -0.571 -0.451 -1.262 -0.175 -1.895 c 0.275 -0.632 0.825 -1.055 1.508 -1.16 l 1.515 -0.233 c 0.487 -0.075 0.848 -0.495 0.848 -0.988 v -2.77 C 56.5 42.366 56.159 41.954 55.688 41.863 z M 54.5 44.758 l -0.667 0.103 c -1.354 0.208 -2.489 1.082 -3.036 2.337 c -0.548 1.256 -0.416 2.682 0.352 3.815 l 0.361 0.533 l -0.768 0.768 l -0.177 -0.13 c -1.13 -0.827 -2.575 -1.002 -3.869 -0.467 c -1.294 0.536 -2.192 1.682 -2.405 3.065 L 44.258 55 h -1.086 l -0.121 -0.633 c -0.259 -1.346 -1.175 -2.447 -2.449 -2.947 c -1.275 -0.499 -2.695 -0.314 -3.8 0.494 l -0.544 0.399 l -0.768 -0.768 l 0.361 -0.533 c 0.768 -1.134 0.899 -2.56 0.352 -3.815 c -0.547 -1.255 -1.683 -2.129 -3.036 -2.337 L 32.5 44.758 v -1.086 l 0.633 -0.121 c 1.346 -0.259 2.447 -1.175 2.947 -2.449 c 0.5 -1.275 0.315 -2.695 -0.494 -3.8 l -0.399 -0.544 l 0.768 -0.768 l 0.889 0.602 c 1.107 0.752 2.51 0.893 3.747 0.381 c 1.237 -0.513 2.127 -1.604 2.38 -2.919 L 43.172 33 h 1.086 l 0.103 0.667 c 0.208 1.354 1.082 2.489 2.337 3.036 c 1.256 0.547 2.682 0.416 3.815 -0.352 l 0.533 -0.361 l 0.768 0.768 l -0.399 0.544 c -0.81 1.104 -0.994 2.524 -0.494 3.8 c 0.5 1.274 1.602 2.19 2.947 2.449 l 0.633 0.121 V 44.758 z" stroke-linecap="round" />
</g>
		<g transform="matrix(1 0 0 1 15 15.5)"  >
<path style="stroke: none; stroke-width: 1; stroke-dasharray: none; stroke-linecap: butt; stroke-dashoffset: 0; stroke-linejoin: miter; stroke-miterlimit: 4; fill: rgb(0,0,0); fill-rule: nonzero; opacity: 1;"  transform=" translate(-43.5, -44)" d="M 43.5 39 c -2.757 0 -5 2.243 -5 5 s 2.243 5 5 5 s 5 -2.243 5 -5 S 46.257 39 43.5 39 z M 43.5 47 c -1.654 0 -3 -1.346 -3 -3 s 1.346 -3 3 -3 s 3 1.346 3 3 S 45.154 47 43.5 47 z" stroke-linecap="round" />
</g>
		<g transform="matrix(1 0 0 1 8 -15.5)"  >
<path style="stroke: none; stroke-width: 1; stroke-dasharray: none; stroke-linecap: butt; stroke-dashoffset: 0; stroke-linejoin: miter; stroke-miterlimit: 4; fill: rgb(0,0,0); fill-rule: nonzero; opacity: 1;"  transform=" translate(-36.5, -13)" d="M 27.5 12 c -0.553 0 -1 0.447 -1 1 s 0.447 1 1 1 h 18 c 0.553 0 1 -0.447 1 -1 s -0.447 -1 -1 -1 H 27.5 z" stroke-linecap="round" />
</g>
		<g transform="matrix(1 0 0 1 8 -1.5)"  >
<path style="stroke: none; stroke-width: 1; stroke-dasharray: none; stroke-linecap: butt; stroke-dashoffset: 0; stroke-linejoin: miter; stroke-miterlimit: 4; fill: rgb(0,0,0); fill-rule: nonzero; opacity: 1;"  transform=" translate(-36.5, -27)" d="M 46.5 27 c 0 -0.553 -0.447 -1 -1 -1 h -18 c -0.553 0 -1 0.447 -1 1 s 0.447 1 1 1 h 18 C 46.053 28 46.5 27.553 46.5 27 z" stroke-linecap="round" />
</g>
		<g transform="matrix(1 0 0 1 -13.79 -16.5)"  >
<path style="stroke: none; stroke-width: 1; stroke-dasharray: none; stroke-linecap: butt; stroke-dashoffset: 0; stroke-linejoin: miter; stroke-miterlimit: 4; fill: rgb(0,0,0); fill-rule: nonzero; opacity: 1;"  transform=" translate(-14.71, -12)" d="M 21.079 7.241 c -0.418 -0.359 -1.05 -0.312 -1.409 0.108 l -6.248 7.288 L 9.6 11.771 c -0.441 -0.33 -1.068 -0.243 -1.399 0.2 c -0.332 0.441 -0.242 1.068 0.2 1.399 l 4.571 3.429 c 0.179 0.135 0.39 0.2 0.599 0.2 c 0.283 0 0.563 -0.119 0.76 -0.35 l 6.857 -8 C 21.548 8.231 21.499 7.601 21.079 7.241 z" stroke-linecap="round" />
</g>
		<g transform="matrix(1 0 0 1 -13.79 -2.5)"  >
<path style="stroke: none; stroke-width: 1; stroke-dasharray: none; stroke-linecap: butt; stroke-dashoffset: 0; stroke-linejoin: miter; stroke-miterlimit: 4; fill: rgb(0,0,0); fill-rule: nonzero; opacity: 1;"  transform=" translate(-14.71, -26)" d="M 21.079 21.241 c -0.418 -0.359 -1.05 -0.312 -1.409 0.108 l -6.248 7.288 L 9.6 25.771 c -0.441 -0.33 -1.068 -0.243 -1.399 0.2 c -0.332 0.441 -0.242 1.068 0.2 1.399 l 4.571 3.429 c 0.179 0.135 0.39 0.2 0.599 0.2 c 0.283 0 0.563 -0.119 0.76 -0.35 l 6.857 -8 C 21.548 22.231 21.499 21.601 21.079 21.241 z" stroke-linecap="round" />
</g>
		<g transform="matrix(1 0 0 1 -13.79 12.5)"  >
<path style="stroke: none; stroke-width: 1; stroke-dasharray: none; stroke-linecap: butt; stroke-dashoffset: 0; stroke-linejoin: miter; stroke-miterlimit: 4; fill: rgb(0,0,0); fill-rule: nonzero; opacity: 1;"  transform=" translate(-14.72, -41)" d="M 19.67 36.35 l -6.248 7.287 L 9.6 40.771 c -0.441 -0.331 -1.068 -0.243 -1.399 0.2 c -0.332 0.441 -0.242 1.068 0.2 1.399 l 4.571 3.429 c 0.179 0.135 0.39 0.2 0.599 0.2 c 0.283 0 0.563 -0.119 0.76 -0.35 l 6.857 -7.999 c 0.36 -0.419 0.312 -1.05 -0.108 -1.409 C 20.661 35.882 20.029 35.93 19.67 36.35 z" stroke-linecap="round" />
</g>
		<g transform="matrix(1 0 0 1 -1 -1.5)"  >
<path style="stroke: none; stroke-width: 1; stroke-dasharray: none; stroke-linecap: butt; stroke-dashoffset: 0; stroke-linejoin: miter; stroke-miterlimit: 4; fill: rgb(0,0,0); fill-rule: nonzero; opacity: 1;"  transform=" translate(-27.5, -27)" d="M 23.5 52 H 12.676 C 7.064 52 2.5 47.436 2.5 41.824 V 12.176 C 2.5 6.564 7.064 2 12.676 2 h 29.648 C 47.936 2 52.5 6.564 52.5 12.176 V 33 c 0 0.553 0.447 1 1 1 s 1 -0.447 1 -1 V 12.176 C 54.5 5.462 49.038 0 42.324 0 H 12.676 C 5.962 0 0.5 5.462 0.5 12.176 v 29.648 C 0.5 48.538 5.962 54 12.676 54 H 23.5 c 0.553 0 1 -0.447 1 -1 S 24.053 52 23.5 52 z" stroke-linecap="round" />
</g>
</g>
</g>
</g>
</g>
</g>
</g>
</svg>