<?xml version="1.0" encoding="utf-8"?>
<svg width="32px" height="32px" viewBox="0 0 32 32" id="i-mobile" fill="none" stroke="currentcolor" stroke-linecap="round" stroke-linejoin="round" stroke-width="2" xmlns="http://www.w3.org/2000/svg">
  <path style="stroke: rgb(0, 0, 0); paint-order: fill;" d="M 9 8 L 9 4 C 9 3 10 2 11 2 C 10 2 22 2 21 2 C 22 2 23 3 23 4 C 23 4 23 29 23 28 C 23 29 22 30 21 30 L 11 30 C 10 30 9 29 9 28 L 9 25"/>
  <path style="fill: rgb(216, 216, 216); stroke: rgb(0, 0, 0);" d="M 9 27 L 23 27"/>
  <path style="fill: rgb(216, 216, 216); stroke: rgb(0, 0, 0);" d="M 9 5 L 23 5"/>
  <g transform="matrix(0.017521, 0.017519, -0.025974, 0.025975, 12.591836, 10.88703)">
    <path d="M 366.466 76.567 C 381.826 87.234 381.826 104.401 366.466 115.068 C 358.786 120.401 348.826 123.068 338.746 123.068 C 328.666 123.068 318.706 120.401 311.026 115.068 L 175.066 20.565 L 175.066 308.741 C 175.066 323.741 157.546 335.992 135.826 335.992 C 114.106 335.992 96.586 323.825 96.586 308.741 L 96.586 20.565 L -39.374 115.068 C -54.734 125.735 -79.454 125.735 -94.814 115.068 C -110.174 104.401 -110.174 87.234 -94.814 76.567 L 108.106 -64.355 C 115.426 -69.522 125.386 -72.355 135.826 -72.355 C 146.266 -72.355 156.226 -69.522 163.546 -64.355 L 366.466 76.567 Z" style="stroke: rgba(0, 0, 0, 0.9); fill: rgb(0, 0, 0);"/>
  </g>
  <g transform="matrix(1, 0, 0, 1, -206.887629, -229)"/>
  <g transform="matrix(1, 0, 0, 1, -206.887629, -229)"/>
  <g transform="matrix(1, 0, 0, 1, -206.887629, -229)"/>
  <g transform="matrix(1, 0, 0, 1, -206.887629, -229)"/>
  <g transform="matrix(1, 0, 0, 1, -206.887629, -229)"/>
  <g transform="matrix(1, 0, 0, 1, -206.887629, -229)"/>
  <g transform="matrix(1, 0, 0, 1, -206.887629, -229)"/>
  <g transform="matrix(1, 0, 0, 1, -206.887629, -229)"/>
  <g transform="matrix(1, 0, 0, 1, -206.887629, -229)"/>
  <g transform="matrix(1, 0, 0, 1, -206.887629, -229)"/>
  <g transform="matrix(1, 0, 0, 1, -206.887629, -229)"/>
  <g transform="matrix(1, 0, 0, 1, -206.887629, -229)"/>
  <g transform="matrix(1, 0, 0, 1, -206.887629, -229)"/>
  <g transform="matrix(1, 0, 0, 1, -206.887629, -229)"/>
  <g transform="matrix(1, 0, 0, 1, -206.887629, -229)"/>
</svg>