<?xml version="1.0" encoding="utf-8"?>
<svg version="1.1" id="Capa_1" x="0px" y="0px" width="490.646px" height="555.378px" viewBox="0 0 555.377 555.378" style="enable-background:new 0 0 555.377 555.378;" fill="#ff8c1a" xmlns="http://www.w3.org/2000/svg" xmlnsBx="https://boxy-svg.com">
  <g>
    <g>
      <path d="M409.442,226.725h-293.76v328.653h293.76V226.725z M193.712,510.497h-15.3V271.605h15.3V510.497z M270.212,510.497h-15.3 V271.605h15.3V510.497z M346.712,510.497h-15.301V271.605h15.301V510.497z"/>
      <path d="M 400.984 227.528 L 341.176 192.745 L 373.073 137.898 L 242.58 62.007 L 210.683 116.851 L 147.05 79.844 L 116.797 131.867 L 370.73 279.552 L 400.984 227.528 Z M 253.648 103.843 L 331.238 148.968 L 314.723 177.362 L 237.13 132.237 L 253.648 103.843 Z" transform="matrix(0.864274, -0.503021, 0.503021, 0.864274, -51.551654, 156.312563)" bxOrigin="0.517569 0.513358"/>
    </g>
  </g>
  <g/>
  <g/>
  <g/>
  <g/>
  <g/>
  <g/>
  <g/>
  <g/>
  <g/>
  <g/>
  <g/>
  <g/>
  <g/>
  <g/>
  <g/>
</svg>